G04 MADE WITH FRITZING*
G04 WWW.FRITZING.ORG*
G04 DOUBLE SIDED*
G04 HOLES PLATED*
G04 CONTOUR ON CENTER OF CONTOUR VECTOR*
%ASAXBY*%
%FSLAX23Y23*%
%MOIN*%
%OFA0B0*%
%SFA1.0B1.0*%
%ADD10C,0.085000*%
%ADD11C,0.097695*%
%ADD12C,0.097722*%
%ADD13C,0.054000*%
%ADD14C,0.088000*%
%ADD15C,0.096614*%
%ADD16R,0.085000X0.085000*%
%ADD17R,0.088000X0.088000*%
%ADD18C,0.030000*%
%LNMASK1*%
G90*
G70*
G54D10*
X1217Y1204D03*
X1517Y1204D03*
X1217Y1104D03*
X1517Y1104D03*
X1217Y1004D03*
X1517Y1004D03*
X1217Y904D03*
X1517Y904D03*
G54D11*
X617Y604D03*
G54D12*
X420Y800D03*
X519Y800D03*
G54D11*
X715Y800D03*
G54D12*
X814Y800D03*
G54D13*
X420Y505D03*
X814Y505D03*
X814Y604D03*
X617Y800D03*
X420Y604D03*
G54D14*
X1725Y1009D03*
X1725Y1109D03*
G54D10*
X217Y1304D03*
X217Y1404D03*
X1017Y1504D03*
X1117Y1504D03*
X617Y1204D03*
X617Y1104D03*
X417Y1004D03*
X417Y1404D03*
X817Y1104D03*
X1117Y1104D03*
G54D14*
X1517Y1504D03*
X1417Y1504D03*
G54D15*
X1617Y304D03*
X1717Y1504D03*
X517Y1404D03*
X217Y504D03*
G54D16*
X1217Y1204D03*
X217Y1304D03*
X1017Y1504D03*
X617Y1204D03*
G54D17*
X1517Y1504D03*
G54D18*
G36*
X1696Y980D02*
X1696Y1038D01*
X1754Y1038D01*
X1754Y980D01*
X1696Y980D01*
G37*
D02*
G04 End of Mask1*
M02*