; NON-PLATED HOLES START AT T1
; THROUGH (PLATED) HOLES START AT T100
M48
INCH
T1C0.086614
T2C0.044000
T100C0.052972
T101C0.035000
T102C0.038000
T103C0.053000
%
T1
X005169Y014036
X002169Y005036
X017169Y015036
X016169Y003036
T2
X008137Y006036
X006169Y008004
X004201Y005052
X008137Y005052
X004201Y006036
T100
X006169Y006036
X007153Y008004
T101
X008169Y011036
X015169Y011036
X012169Y012036
X004169Y010036
X015169Y009036
X006169Y011036
X011169Y011036
X012169Y009036
X002169Y014036
X015169Y010036
X012169Y010036
X011169Y015036
X006169Y012036
X004169Y014036
X002169Y013036
X012169Y011036
X010169Y015036
X015169Y012036
T102
X015169Y015036
X014169Y015036
X017246Y011085
X017246Y010085
T103
X008137Y008004
X004201Y008004
X005185Y008004
T00
M30
